<mxfile host="app.diagrams.net" modified="2024-03-09T12:55:25.790Z" agent="Mozilla/5.0 (Macintosh; Intel Mac OS X 10_15_7) AppleWebKit/537.36 (KHTML, like Gecko) Chrome/122.0.0.0 Safari/537.36" version="23.1.1" etag="OZAL_knMnW-VXseMw__3" type="github">
  <diagram name="Page-1" id="_IgXFaSOucdgyaTNoNsj">
    <mxGraphModel>
      <root>
        <mxCell id="0" />
        <mxCell id="1" parent="0" />
      </root>
    </mxGraphModel>
  </diagram>
</mxfile>
